<svg width="16" height="14" viewBox="0 0 16 14" fill="none" xmlns="http://www.w3.org/2000/svg">
<path fill-rule="evenodd" clip-rule="evenodd" d="M8.74417 0.478773C8.60437 0.195509 8.31588 0.0161743 7.99999 0.0161743C7.68411 0.0161743 7.39562 0.195509 7.25582 0.478773L5.44937 4.13904L1.41002 4.72599C1.09742 4.77141 0.837718 4.99037 0.740104 5.29079C0.64249 5.59122 0.723898 5.92101 0.950099 6.1415L3.87299 8.99062L3.18299 13.0136C3.12959 13.325 3.25758 13.6396 3.51313 13.8253C3.76869 14.011 4.1075 14.0355 4.38709 13.8885L7.99999 11.9891L11.6129 13.8885C11.8925 14.0355 12.2313 14.011 12.4868 13.8253C12.7424 13.6396 12.8704 13.325 12.817 13.0136L12.127 8.99062L15.0499 6.1415C15.2761 5.92101 15.3575 5.59122 15.2599 5.29079C15.1623 4.99037 14.9026 4.77141 14.59 4.72599L10.5506 4.13904L8.74417 0.478773ZM7.99999 10.2216C8.13263 10.2216 8.26528 10.2534 8.38617 10.3169L10.8969 11.6369L10.4174 8.84118C10.3712 8.57197 10.4605 8.29728 10.656 8.10663L12.6873 6.12669L9.88019 5.7188C9.6099 5.67952 9.37623 5.50975 9.25535 5.26482L7.99999 2.72118L7.99999 10.2216Z" fill="#F14635"/>
</svg>
